<svg width="27" height="28" viewBox="0 0 27 28" fill="none" xmlns="http://www.w3.org/2000/svg">
<path d="M18.0667 20.511L19.689 18.8891L14.511 13.689V7.17772H12.289V14.5777L18.0667 20.511ZM13.3333 27.4667C11.5038 27.4667 9.77789 27.1167 8.15567 26.4167C6.53345 25.7167 5.11856 24.7631 3.911 23.5557C2.70367 22.3482 1.75 20.9333 1.05 19.311C0.35 17.6888 0 15.9629 0 14.1334C0 12.3038 0.35 10.5779 1.05 8.95572C1.75 7.33349 2.70367 5.91861 3.911 4.71105C5.11856 3.50372 6.53345 2.55005 8.15567 1.85005C9.77789 1.15005 11.5038 0.800049 13.3333 0.800049C15.1629 0.800049 16.8888 1.15005 18.511 1.85005C20.1332 2.55005 21.5481 3.50372 22.7557 4.71105C23.963 5.91861 24.9167 7.33349 25.6167 8.95572C26.3167 10.5779 26.6667 12.3038 26.6667 14.1334C26.6667 15.9629 26.3167 17.6888 25.6167 19.311C24.9167 20.9333 23.963 22.3482 22.7557 23.5557C21.5481 24.7631 20.1332 25.7167 18.511 26.4167C16.8888 27.1167 15.1629 27.4667 13.3333 27.4667Z" fill="#FFE038"/>
</svg>
