<svg width="28" height="25" viewBox="0 0 28 25" fill="none" xmlns="http://www.w3.org/2000/svg">
<path d="M6.18296 10.0225L4.33829 11.0445C4.02718 11.2222 3.69763 11.2705 3.34963 11.1891C3.00141 11.1076 2.75318 10.9187 2.60496 10.6225L0.182962 6.42246C0.00518382 6.11135 -0.0430383 5.82246 0.0382951 5.5558C0.119851 5.28913 0.30874 5.06691 0.604962 4.88913L8.22729 0.466797H10.4273C10.6569 0.466797 10.8402 0.535352 10.9773 0.672463C11.1144 0.809352 11.183 0.992685 11.183 1.22246V1.7778C11.183 2.58535 11.4477 3.25391 11.9773 3.78346C12.5069 4.31302 13.1754 4.5778 13.983 4.5778C14.7903 4.5778 15.4551 4.31302 15.9773 3.78346C16.4995 3.25391 16.7606 2.58535 16.7606 1.7778V1.22246C16.7606 0.992685 16.8292 0.809352 16.9663 0.672463C17.1032 0.535352 17.2865 0.466797 17.5163 0.466797H19.7163L27.3383 4.88913C27.6347 5.06691 27.82 5.28913 27.894 5.5558C27.968 5.82246 27.9235 6.11135 27.7606 6.42246L25.3163 10.6225C25.1681 10.9187 24.8959 11.1094 24.4996 11.1945C24.1032 11.2798 23.768 11.2409 23.494 11.0778L21.6716 9.98913V23.1558C21.6716 23.5187 21.5402 23.8279 21.2773 24.0835C21.0144 24.339 20.7014 24.4668 20.3383 24.4668H7.49396C7.13107 24.4668 6.82185 24.339 6.5663 24.0835C6.31074 23.8279 6.18296 23.5187 6.18296 23.1558V10.0225Z" fill="#FFE038"/>
</svg>
