<svg width="33" height="32" viewBox="0 0 33 32" fill="none" xmlns="http://www.w3.org/2000/svg">
<g clip-path="url(#clip0_857_428)">
<path d="M20.9984 7.55005H11.7484C9.64844 7.55005 7.89844 9.30005 7.89844 11.4V20.65C7.89844 22.75 9.64844 24.5 11.7484 24.5H20.9984C23.0984 24.5 24.8484 22.75 24.8484 20.65V11.4C24.8484 9.30005 23.0984 7.55005 20.9984 7.55005ZM16.3484 21.4C13.3984 21.4 10.9484 19 10.9484 16C10.9484 13 13.3484 10.6 16.3484 10.6C19.3484 10.6 21.7484 13 21.7484 16C21.7484 19 19.3484 21.4 16.3484 21.4ZM22.1484 11.4C21.4984 11.4 20.9984 10.9 20.9984 10.25C20.9984 9.60005 21.4984 9.10005 22.1484 9.10005C22.7984 9.10005 23.2984 9.60005 23.2984 10.25C23.2984 10.9 22.7984 11.4 22.1484 11.4ZM16.3484 12.2C14.2484 12.2 12.4984 13.95 12.4984 16.05C12.4984 18.15 14.2484 19.9 16.3484 19.9C18.4484 19.9 20.1984 18.15 20.1984 16.05C20.1984 13.95 18.4984 12.2 16.3484 12.2Z" fill="#FFE038"/>
<path d="M16.2983 0C7.44834 0 0.29834 7.15 0.29834 16C0.29834 24.85 7.44834 32 16.2983 32C25.1483 32 32.2983 24.85 32.2983 16C32.2983 7.15 25.1483 0 16.2983 0ZM26.3983 20.65C26.3483 23.6 23.9483 26.05 20.9983 26.05H11.7483C8.79834 26.05 6.34834 23.65 6.34834 20.65V11.4C6.34834 8.45 8.74834 6 11.7483 6H20.9983C23.9483 6 26.3983 8.4 26.3983 11.4V20.65Z" fill="#FFE038"/>
</g>
<defs>
<clipPath id="clip0_857_428">
<rect width="32" height="32" fill="white" transform="translate(0.29834)"/>
</clipPath>
</defs>
</svg>
