<svg width="24" height="29" viewBox="0 0 24 29" fill="none" xmlns="http://www.w3.org/2000/svg">
<path d="M11.7079 14.4C12.4526 14.4 13.0875 14.1349 13.6125 13.6046C14.1375 13.0744 14.4 12.4369 14.4 11.6921C14.4 10.9474 14.1349 10.3125 13.6046 9.7875C13.0744 9.2625 12.4369 9 11.6921 9C10.9474 9 10.3125 9.26513 9.7875 9.79538C9.2625 10.3256 9 10.9631 9 11.7079C9 12.4526 9.26513 13.0875 9.79537 13.6125C10.3256 14.1375 10.9631 14.4 11.7079 14.4ZM11.7 28.8C7.77575 25.5223 4.84462 22.4779 2.90662 19.6669C0.968875 16.8556 0 14.2375 0 11.8125C0 8.4625 1.1125 5.65625 3.3375 3.39375C5.5625 1.13125 8.34375 0 11.6813 0C15.0188 0 17.8063 1.13125 20.0438 3.39375C22.2812 5.65625 23.4 8.4625 23.4 11.8125C23.4 14.2375 22.4375 16.85 20.5125 19.65C18.5875 22.45 15.65 25.5 11.7 28.8Z" fill="#FFE038"/>
</svg>
