<svg width="33" height="32" viewBox="0 0 33 32" fill="none" xmlns="http://www.w3.org/2000/svg">
<g clip-path="url(#clip0_857_426)">
<path d="M27.5983 4.7C24.6983 1.8 20.6983 0 16.2983 0C11.8983 0 7.89834 1.8 4.99834 4.7C2.09834 7.6 0.29834 11.6 0.29834 16C0.29834 20.4 2.09834 24.4 4.99834 27.3C7.89834 30.2 11.8983 32 16.2983 32C25.1483 32 32.2983 24.85 32.2983 16C32.2983 11.6 30.4983 7.6 27.5983 4.7ZM24.0483 14.25C23.8983 14.25 23.7483 14.25 23.5983 14.25C21.8983 14.25 20.3983 13.35 19.5483 12.05V19.55C19.5483 22.6 17.0983 25.05 14.0483 25.05C10.9983 25.05 8.54834 22.55 8.54834 19.55C8.54834 16.55 10.9983 14.05 14.0483 14.05C14.1483 14.05 14.2983 14.05 14.3983 14.05V16.8C14.2983 16.8 14.1483 16.75 14.0483 16.75C12.4983 16.75 11.2483 18 11.2483 19.55C11.2483 21.1 12.4983 22.35 14.0483 22.35C15.5983 22.35 16.9983 21.1 16.9983 19.55C16.9983 19.5 16.9983 6.85 16.9983 6.85H19.5983C19.8483 9.2 21.6983 11 24.0483 11.2V14.25Z" fill="#FFE038"/>
</g>
<defs>
<clipPath id="clip0_857_426">
<rect width="32" height="32" fill="white" transform="translate(0.29834)"/>
</clipPath>
</defs>
</svg>
